<svg xmlns="http://www.w3.org/2000/svg" width="800" height="800" fill="#5a981b" viewBox="0 0 50 50"><path d="M16.984 6.986a1 1 0 0 0-.142.014H9c-4.959 0-9 4.041-9 9v2.832a1 1 0 0 0 0 .326V33a4 4 0 0 0 4 4h.041c-.014.167-.041.333-.041.5 0 1.347.444 2.708 1.377 3.758S7.75 43 9.5 43s3.19-.692 4.123-1.742S15 38.848 15 37.5c0-.167-.027-.333-.041-.5h17.127l12.84-9.986.017-.016a43 43 0 0 0-.351-3.828c-.007-.055-.012-.115-.02-.17h-.008c-.967-6.826-3.356-11.663-4.736-14H43a1 1 0 1 0 0-2H17.168a1 1 0 0 0-.184-.014M9 9h7v9H2v-2c0-3.877 3.123-7 7-7m9 0h12v16.5c0 3.033-2.468 5.5-5.5 5.5H22v-3a5.01 5.01 0 0 0-4-4.898v-3.934a1 1 0 0 0 0-.326zm17 0h2.463c.666.971 3.588 5.527 4.91 13H35zM2 20h14v3H2zm43.92 8.773L36.629 36h1.605c-.138.48-.234.976-.234 1.5 0 3.033 2.468 5.5 5.5 5.5s5.5-2.467 5.5-5.5a5.5 5.5 0 0 0-.213-1.5H49a.998.998 0 0 0 .98-1.195c-.683-3.42-2.623-5.176-4.06-6.032M40.352 36h6.296c.219.456.352.961.352 1.5 0 1.93-1.57 3.5-3.5 3.5S40 39.43 40 37.5c0-.539.133-1.044.352-1.5M6.043 37h6.914c.021.166.043.332.043.5 0 .903-.306 1.792-.873 2.43C11.56 40.567 10.75 41 9.5 41s-2.06-.433-2.627-1.07C6.306 39.292 6 38.403 6 37.5c0-.168.022-.334.043-.5"/></svg>